# This file was created with Minddesk Qubicle 3.0
# Get Qubicle at www.getqubicle.com

mtllib sword4.mtl

vn 0.0 0.0 1.0
vn 0.0 0.0 -1.0
vn -1.0 0.0 0.0
vn 1.0 0.0 0.0
vn 0.0 1.0 0.0
vn 0.0 -1.0 0.0

v -2.00000 8.00000 -1.00000
v -2.00000 7.00000 -1.00000
v -2.00000 7.00000 0.00000
v -2.00000 8.00000 0.00000
v -1.00000 7.00000 -1.00000
v -1.00000 7.00000 0.00000
v -1.00000 8.00000 -1.00000
v -2.00000 9.00000 -1.00000
v -2.00000 9.00000 0.00000
v -1.00000 9.00000 0.00000
v -1.00000 9.00000 -1.00000
v 0.00000 7.00000 -1.00000
v 0.00000 7.00000 0.00000
v 0.00000 8.00000 -1.00000
v 0.00000 9.00000 0.00000
v 0.00000 9.00000 -1.00000
v 1.00000 7.00000 -1.00000
v 1.00000 7.00000 0.00000
v 1.00000 8.00000 -1.00000
v 1.00000 9.00000 0.00000
v 1.00000 9.00000 -1.00000
v 2.00000 8.00000 0.00000
v 2.00000 7.00000 0.00000
v 2.00000 7.00000 -1.00000
v 2.00000 8.00000 -1.00000
v 2.00000 9.00000 0.00000
v 2.00000 9.00000 -1.00000
v -5.00000 9.00000 0.00000
v -5.00000 8.00000 0.00000
v -5.00000 8.00000 1.00000
v -5.00000 9.00000 1.00000
v -4.00000 9.00000 1.00000
v -4.00000 9.00000 0.00000
v -4.00000 8.00000 0.00000
v -4.00000 8.00000 1.00000
v -3.00000 9.00000 1.00000
v -3.00000 9.00000 0.00000
v -3.00000 8.00000 0.00000
v -3.00000 8.00000 1.00000
v -3.00000 7.00000 0.00000
v -3.00000 7.00000 1.00000
v -2.00000 7.00000 1.00000
v -2.00000 8.00000 1.00000
v -2.00000 9.00000 1.00000
v -1.00000 7.00000 1.00000
v -1.00000 9.00000 1.00000
v -1.00000 2.00000 0.00000
v -1.00000 1.00000 0.00000
v -1.00000 1.00000 1.00000
v -1.00000 2.00000 1.00000
v 0.00000 1.00000 0.00000
v 0.00000 1.00000 1.00000
v 0.00000 2.00000 0.00000
v 0.00000 2.00000 1.00000
v -1.00000 3.00000 0.00000
v -1.00000 3.00000 1.00000
v 0.00000 3.00000 0.00000
v 0.00000 3.00000 1.00000
v -1.00000 4.00000 0.00000
v -1.00000 4.00000 1.00000
v 0.00000 4.00000 0.00000
v 0.00000 4.00000 1.00000
v -1.00000 5.00000 0.00000
v -1.00000 5.00000 1.00000
v 0.00000 5.00000 0.00000
v 0.00000 5.00000 1.00000
v -1.00000 6.00000 0.00000
v -1.00000 6.00000 1.00000
v 0.00000 6.00000 0.00000
v 0.00000 6.00000 1.00000
v 0.00000 7.00000 1.00000
v -1.00000 10.00000 0.00000
v -1.00000 10.00000 1.00000
v 0.00000 10.00000 0.00000
v 0.00000 9.00000 1.00000
v 0.00000 10.00000 1.00000
v -1.00000 11.00000 0.00000
v -1.00000 11.00000 1.00000
v 0.00000 11.00000 0.00000
v 0.00000 11.00000 1.00000
v -1.00000 12.00000 0.00000
v -1.00000 12.00000 1.00000
v 0.00000 12.00000 0.00000
v 0.00000 12.00000 1.00000
v -1.00000 13.00000 0.00000
v -1.00000 13.00000 1.00000
v 0.00000 13.00000 0.00000
v 0.00000 13.00000 1.00000
v -1.00000 14.00000 0.00000
v -1.00000 14.00000 1.00000
v 0.00000 14.00000 0.00000
v 0.00000 14.00000 1.00000
v -1.00000 15.00000 0.00000
v -1.00000 15.00000 1.00000
v 0.00000 15.00000 0.00000
v 0.00000 15.00000 1.00000
v -1.00000 16.00000 0.00000
v -1.00000 16.00000 1.00000
v 0.00000 16.00000 0.00000
v 0.00000 16.00000 1.00000
v -1.00000 17.00000 0.00000
v -1.00000 17.00000 1.00000
v 0.00000 17.00000 0.00000
v 0.00000 17.00000 1.00000
v -1.00000 18.00000 0.00000
v -1.00000 18.00000 1.00000
v 0.00000 18.00000 0.00000
v 0.00000 18.00000 1.00000
v -1.00000 19.00000 0.00000
v -1.00000 19.00000 1.00000
v 0.00000 19.00000 0.00000
v 0.00000 19.00000 1.00000
v -1.00000 20.00000 0.00000
v -1.00000 20.00000 1.00000
v 0.00000 20.00000 0.00000
v 0.00000 20.00000 1.00000
v -1.00000 21.00000 0.00000
v -1.00000 21.00000 1.00000
v 0.00000 21.00000 0.00000
v 0.00000 21.00000 1.00000
v -1.00000 22.00000 0.00000
v -1.00000 22.00000 1.00000
v 0.00000 22.00000 0.00000
v 0.00000 22.00000 1.00000
v -1.00000 23.00000 0.00000
v -1.00000 23.00000 1.00000
v 0.00000 23.00000 0.00000
v 0.00000 23.00000 1.00000
v -1.00000 24.00000 0.00000
v -1.00000 24.00000 1.00000
v 0.00000 24.00000 0.00000
v 0.00000 24.00000 1.00000
v -1.00000 25.00000 0.00000
v -1.00000 25.00000 1.00000
v 0.00000 25.00000 0.00000
v 0.00000 25.00000 1.00000
v -1.00000 26.00000 0.00000
v -1.00000 26.00000 1.00000
v 0.00000 26.00000 0.00000
v 0.00000 26.00000 1.00000
v -1.00000 27.00000 0.00000
v -1.00000 27.00000 1.00000
v 0.00000 27.00000 0.00000
v 0.00000 27.00000 1.00000
v -1.00000 28.00000 0.00000
v -1.00000 28.00000 1.00000
v 0.00000 28.00000 1.00000
v 0.00000 28.00000 0.00000
v 1.00000 2.00000 1.00000
v 1.00000 1.00000 1.00000
v 1.00000 1.00000 0.00000
v 1.00000 2.00000 0.00000
v 1.00000 3.00000 1.00000
v 1.00000 3.00000 0.00000
v 1.00000 4.00000 1.00000
v 1.00000 4.00000 0.00000
v 1.00000 5.00000 1.00000
v 1.00000 5.00000 0.00000
v 1.00000 6.00000 1.00000
v 1.00000 6.00000 0.00000
v 1.00000 7.00000 1.00000
v 1.00000 10.00000 1.00000
v 1.00000 9.00000 1.00000
v 1.00000 10.00000 0.00000
v 1.00000 11.00000 1.00000
v 1.00000 11.00000 0.00000
v 1.00000 12.00000 1.00000
v 1.00000 12.00000 0.00000
v 1.00000 13.00000 1.00000
v 1.00000 13.00000 0.00000
v 1.00000 14.00000 1.00000
v 1.00000 14.00000 0.00000
v 1.00000 15.00000 1.00000
v 1.00000 15.00000 0.00000
v 1.00000 16.00000 1.00000
v 1.00000 16.00000 0.00000
v 1.00000 17.00000 1.00000
v 1.00000 17.00000 0.00000
v 1.00000 18.00000 1.00000
v 1.00000 18.00000 0.00000
v 1.00000 19.00000 1.00000
v 1.00000 19.00000 0.00000
v 1.00000 20.00000 1.00000
v 1.00000 20.00000 0.00000
v 1.00000 21.00000 1.00000
v 1.00000 21.00000 0.00000
v 1.00000 22.00000 1.00000
v 1.00000 22.00000 0.00000
v 1.00000 23.00000 1.00000
v 1.00000 23.00000 0.00000
v 1.00000 24.00000 1.00000
v 1.00000 24.00000 0.00000
v 1.00000 25.00000 1.00000
v 1.00000 25.00000 0.00000
v 1.00000 26.00000 1.00000
v 1.00000 26.00000 0.00000
v 1.00000 27.00000 1.00000
v 1.00000 27.00000 0.00000
v 1.00000 28.00000 1.00000
v 1.00000 28.00000 0.00000
v 2.00000 7.00000 1.00000
v 2.00000 9.00000 1.00000
v 3.00000 8.00000 1.00000
v 3.00000 7.00000 1.00000
v 3.00000 7.00000 0.00000
v 3.00000 8.00000 0.00000
v 2.00000 8.00000 1.00000
v 3.00000 9.00000 1.00000
v 3.00000 9.00000 0.00000
v 4.00000 9.00000 1.00000
v 4.00000 9.00000 0.00000
v 4.00000 8.00000 0.00000
v 4.00000 8.00000 1.00000
v 5.00000 9.00000 1.00000
v 5.00000 8.00000 1.00000
v 5.00000 8.00000 0.00000
v 5.00000 9.00000 0.00000
v -2.00000 7.00000 2.00000
v -2.00000 8.00000 2.00000
v -1.00000 7.00000 2.00000
v -1.00000 8.00000 2.00000
v -2.00000 9.00000 2.00000
v -1.00000 9.00000 2.00000
v 0.00000 7.00000 2.00000
v 0.00000 8.00000 2.00000
v 0.00000 9.00000 2.00000
v 1.00000 7.00000 2.00000
v 1.00000 8.00000 2.00000
v 1.00000 9.00000 2.00000
v 2.00000 8.00000 2.00000
v 2.00000 7.00000 2.00000
v 2.00000 9.00000 2.00000

vt 0.01563 0.17188
vt 0.01563 0.01563
vt 0.17188 0.01563
vt 0.17188 0.17188
vt 0.20313 0.17188
vt 0.20313 0.01563
vt 0.35938 0.01563
vt 0.35938 0.17188
vt 0.39063 0.17188
vt 0.39063 0.01563
vt 0.54688 0.01563
vt 0.54688 0.17188
vt 0.57813 0.17188
vt 0.57813 0.01563
vt 0.73438 0.01563
vt 0.73438 0.17188
vt 0.76563 0.17188
vt 0.76563 0.01563
vt 0.92188 0.01563
vt 0.92188 0.17188
vt 0.01563 0.35938
vt 0.01563 0.20313
vt 0.17188 0.20313
vt 0.17188 0.35938
vt 0.20313 0.35938
vt 0.20313 0.20313
vt 0.35938 0.20313
vt 0.35938 0.35938
vt 0.39063 0.35938
vt 0.39063 0.20313
vt 0.54688 0.20313
vt 0.54688 0.35938
vt 0.57813 0.35938
vt 0.57813 0.20313
vt 0.73438 0.20313
vt 0.73438 0.35938
vt 0.76563 0.35938
vt 0.76563 0.20313
vt 0.92188 0.20313
vt 0.92188 0.35938
vt 0.01563 0.54688
vt 0.01563 0.39063
vt 0.17188 0.39063
vt 0.17188 0.54688

g 
usemtl sword4_Material
f 1/1/3 2/2/3 3/3/3 4/4/3
f 3/1/6 2/2/6 5/3/6 6/4/6
f 7/1/2 5/2/2 2/3/2 1/4/2
f 8/5/3 1/6/3 4/7/3 9/8/3
f 8/5/5 9/6/5 10/7/5 11/8/5
f 11/5/2 7/6/2 1/7/2 8/8/2
f 6/1/6 5/2/6 12/3/6 13/4/6
f 14/1/2 12/2/2 5/3/2 7/4/2
f 11/5/5 10/6/5 15/7/5 16/8/5
f 16/5/2 14/6/2 7/7/2 11/8/2
f 13/1/6 12/2/6 17/3/6 18/4/6
f 19/1/2 17/2/2 12/3/2 14/4/2
f 16/5/5 15/6/5 20/7/5 21/8/5
f 21/5/2 19/6/2 14/7/2 16/8/2
f 22/1/4 23/2/4 24/3/4 25/4/4
f 18/1/6 17/2/6 24/3/6 23/4/6
f 25/1/2 24/2/2 17/3/2 19/4/2
f 26/5/4 22/6/4 25/7/4 27/8/4
f 21/5/5 20/6/5 26/7/5 27/8/5
f 27/5/2 25/6/2 19/7/2 21/8/2
f 28/9/3 29/10/3 30/11/3 31/12/3
f 28/9/5 31/10/5 32/11/5 33/12/5
f 30/9/6 29/10/6 34/11/6 35/12/6
f 33/9/2 34/10/2 29/11/2 28/12/2
f 31/9/1 30/10/1 35/11/1 32/12/1
f 33/5/5 32/6/5 36/7/5 37/8/5
f 35/5/6 34/6/6 38/7/6 39/8/6
f 37/5/2 38/6/2 34/7/2 33/8/2
f 32/5/1 35/6/1 39/7/1 36/8/1
f 38/1/3 40/2/3 41/3/3 39/4/3
f 41/1/6 40/2/6 3/3/6 42/4/6
f 4/1/2 3/2/2 40/3/2 38/4/2
f 39/1/1 41/2/1 42/3/1 43/4/1
f 37/5/5 36/6/5 44/7/5 9/8/5
f 9/5/2 4/6/2 38/7/2 37/8/2
f 36/5/1 39/6/1 43/7/1 44/8/1
f 42/1/6 3/2/6 6/3/6 45/4/6
f 9/1/5 44/2/5 46/3/5 10/4/5
f 47/13/3 48/14/3 49/15/3 50/16/3
f 49/13/6 48/14/6 51/15/6 52/16/6
f 53/13/2 51/14/2 48/15/2 47/16/2
f 50/13/1 49/14/1 52/15/1 54/16/1
f 55/17/3 47/18/3 50/19/3 56/20/3
f 57/17/2 53/18/2 47/19/2 55/20/2
f 56/17/1 50/18/1 54/19/1 58/20/1
f 59/13/3 55/14/3 56/15/3 60/16/3
f 61/13/2 57/14/2 55/15/2 59/16/2
f 60/13/1 56/14/1 58/15/1 62/16/1
f 63/17/3 59/18/3 60/19/3 64/20/3
f 65/17/2 61/18/2 59/19/2 63/20/2
f 64/17/1 60/18/1 62/19/1 66/20/1
f 67/13/3 63/14/3 64/15/3 68/16/3
f 69/13/2 65/14/2 63/15/2 67/16/2
f 68/13/1 64/14/1 66/15/1 70/16/1
f 6/17/3 67/18/3 68/19/3 45/20/3
f 13/17/2 69/18/2 67/19/2 6/20/2
f 45/17/1 68/18/1 70/19/1 71/20/1
f 72/29/3 10/30/3 46/31/3 73/32/3
f 74/29/2 15/30/2 10/31/2 72/32/2
f 73/29/1 46/30/1 75/31/1 76/32/1
f 77/29/3 72/30/3 73/31/3 78/32/3
f 79/29/2 74/30/2 72/31/2 77/32/2
f 78/29/1 73/30/1 76/31/1 80/32/1
f 81/29/3 77/30/3 78/31/3 82/32/3
f 83/29/2 79/30/2 77/31/2 81/32/2
f 82/29/1 78/30/1 80/31/1 84/32/1
f 85/29/3 81/30/3 82/31/3 86/32/3
f 87/29/2 83/30/2 81/31/2 85/32/2
f 86/29/1 82/30/1 84/31/1 88/32/1
f 89/29/3 85/30/3 86/31/3 90/32/3
f 91/29/2 87/30/2 85/31/2 89/32/2
f 90/29/1 86/30/1 88/31/1 92/32/1
f 93/29/3 89/30/3 90/31/3 94/32/3
f 95/29/2 91/30/2 89/31/2 93/32/2
f 94/29/1 90/30/1 92/31/1 96/32/1
f 97/29/3 93/30/3 94/31/3 98/32/3
f 99/29/2 95/30/2 93/31/2 97/32/2
f 98/29/1 94/30/1 96/31/1 100/32/1
f 101/29/3 97/30/3 98/31/3 102/32/3
f 103/29/2 99/30/2 97/31/2 101/32/2
f 102/29/1 98/30/1 100/31/1 104/32/1
f 105/29/3 101/30/3 102/31/3 106/32/3
f 107/29/2 103/30/2 101/31/2 105/32/2
f 106/29/1 102/30/1 104/31/1 108/32/1
f 109/29/3 105/30/3 106/31/3 110/32/3
f 111/29/2 107/30/2 105/31/2 109/32/2
f 110/29/1 106/30/1 108/31/1 112/32/1
f 113/29/3 109/30/3 110/31/3 114/32/3
f 115/29/2 111/30/2 109/31/2 113/32/2
f 114/29/1 110/30/1 112/31/1 116/32/1
f 117/29/3 113/30/3 114/31/3 118/32/3
f 119/29/2 115/30/2 113/31/2 117/32/2
f 118/29/1 114/30/1 116/31/1 120/32/1
f 121/29/3 117/30/3 118/31/3 122/32/3
f 123/29/2 119/30/2 117/31/2 121/32/2
f 122/29/1 118/30/1 120/31/1 124/32/1
f 125/29/3 121/30/3 122/31/3 126/32/3
f 127/29/2 123/30/2 121/31/2 125/32/2
f 126/29/1 122/30/1 124/31/1 128/32/1
f 129/29/3 125/30/3 126/31/3 130/32/3
f 131/29/2 127/30/2 125/31/2 129/32/2
f 130/29/1 126/30/1 128/31/1 132/32/1
f 133/29/3 129/30/3 130/31/3 134/32/3
f 135/29/2 131/30/2 129/31/2 133/32/2
f 134/29/1 130/30/1 132/31/1 136/32/1
f 137/29/3 133/30/3 134/31/3 138/32/3
f 139/29/2 135/30/2 133/31/2 137/32/2
f 138/29/1 134/30/1 136/31/1 140/32/1
f 141/29/3 137/30/3 138/31/3 142/32/3
f 143/29/2 139/30/2 137/31/2 141/32/2
f 142/29/1 138/30/1 140/31/1 144/32/1
f 145/29/3 141/30/3 142/31/3 146/32/3
f 145/29/5 146/30/5 147/31/5 148/32/5
f 148/29/2 143/30/2 141/31/2 145/32/2
f 146/29/1 142/30/1 144/31/1 147/32/1
f 149/13/4 150/14/4 151/15/4 152/16/4
f 52/13/6 51/14/6 151/15/6 150/16/6
f 152/13/2 151/14/2 51/15/2 53/16/2
f 54/13/1 52/14/1 150/15/1 149/16/1
f 153/33/4 149/34/4 152/35/4 154/36/4
f 154/33/2 152/34/2 53/35/2 57/36/2
f 58/33/1 54/34/1 149/35/1 153/36/1
f 155/13/4 153/14/4 154/15/4 156/16/4
f 156/13/2 154/14/2 57/15/2 61/16/2
f 62/13/1 58/14/1 153/15/1 155/16/1
f 157/33/4 155/34/4 156/35/4 158/36/4
f 158/33/2 156/34/2 61/35/2 65/36/2
f 66/33/1 62/34/1 155/35/1 157/36/1
f 159/13/4 157/14/4 158/15/4 160/16/4
f 160/13/2 158/14/2 65/15/2 69/16/2
f 70/13/1 66/14/1 157/15/1 159/16/1
f 161/33/4 159/34/4 160/35/4 18/36/4
f 18/33/2 160/34/2 69/35/2 13/36/2
f 71/33/1 70/34/1 159/35/1 161/36/1
f 162/37/4 163/38/4 20/39/4 164/40/4
f 164/37/2 20/38/2 15/39/2 74/40/2
f 76/37/1 75/38/1 163/39/1 162/40/1
f 165/25/4 162/26/4 164/27/4 166/28/4
f 166/25/2 164/26/2 74/27/2 79/28/2
f 80/25/1 76/26/1 162/27/1 165/28/1
f 167/37/4 165/38/4 166/39/4 168/40/4
f 168/37/2 166/38/2 79/39/2 83/40/2
f 84/37/1 80/38/1 165/39/1 167/40/1
f 169/25/4 167/26/4 168/27/4 170/28/4
f 170/25/2 168/26/2 83/27/2 87/28/2
f 88/25/1 84/26/1 167/27/1 169/28/1
f 171/37/4 169/38/4 170/39/4 172/40/4
f 172/37/2 170/38/2 87/39/2 91/40/2
f 92/37/1 88/38/1 169/39/1 171/40/1
f 173/37/4 171/38/4 172/39/4 174/40/4
f 174/37/2 172/38/2 91/39/2 95/40/2
f 96/37/1 92/38/1 171/39/1 173/40/1
f 175/37/4 173/38/4 174/39/4 176/40/4
f 176/37/2 174/38/2 95/39/2 99/40/2
f 100/37/1 96/38/1 173/39/1 175/40/1
f 177/25/4 175/26/4 176/27/4 178/28/4
f 178/25/2 176/26/2 99/27/2 103/28/2
f 104/25/1 100/26/1 175/27/1 177/28/1
f 179/25/4 177/26/4 178/27/4 180/28/4
f 180/25/2 178/26/2 103/27/2 107/28/2
f 108/25/1 104/26/1 177/27/1 179/28/1
f 181/25/4 179/26/4 180/27/4 182/28/4
f 182/25/2 180/26/2 107/27/2 111/28/2
f 112/25/1 108/26/1 179/27/1 181/28/1
f 183/25/4 181/26/4 182/27/4 184/28/4
f 184/25/2 182/26/2 111/27/2 115/28/2
f 116/25/1 112/26/1 181/27/1 183/28/1
f 185/41/4 183/42/4 184/43/4 186/44/4
f 186/41/2 184/42/2 115/43/2 119/44/2
f 120/41/1 116/42/1 183/43/1 185/44/1
f 187/25/4 185/26/4 186/27/4 188/28/4
f 188/25/2 186/26/2 119/27/2 123/28/2
f 124/25/1 120/26/1 185/27/1 187/28/1
f 189/25/4 187/26/4 188/27/4 190/28/4
f 190/25/2 188/26/2 123/27/2 127/28/2
f 128/25/1 124/26/1 187/27/1 189/28/1
f 191/25/4 189/26/4 190/27/4 192/28/4
f 192/25/2 190/26/2 127/27/2 131/28/2
f 132/25/1 128/26/1 189/27/1 191/28/1
f 193/25/4 191/26/4 192/27/4 194/28/4
f 194/25/2 192/26/2 131/27/2 135/28/2
f 136/25/1 132/26/1 191/27/1 193/28/1
f 195/25/4 193/26/4 194/27/4 196/28/4
f 196/25/2 194/26/2 135/27/2 139/28/2
f 140/25/1 136/26/1 193/27/1 195/28/1
f 197/25/4 195/26/4 196/27/4 198/28/4
f 198/25/2 196/26/2 139/27/2 143/28/2
f 144/25/1 140/26/1 195/27/1 197/28/1
f 199/25/4 197/26/4 198/27/4 200/28/4
f 148/25/5 147/26/5 199/27/5 200/28/5
f 200/25/2 198/26/2 143/27/2 148/28/2
f 147/25/1 144/26/1 197/27/1 199/28/1
f 161/1/6 18/2/6 23/3/6 201/4/6
f 20/1/5 163/2/5 202/3/5 26/4/5
f 203/1/4 204/2/4 205/3/4 206/4/4
f 201/1/6 23/2/6 205/3/6 204/4/6
f 206/1/2 205/2/2 23/3/2 22/4/2
f 207/1/1 201/2/1 204/3/1 203/4/1
f 26/5/5 202/6/5 208/7/5 209/8/5
f 209/5/2 206/6/2 22/7/2 26/8/2
f 202/5/1 207/6/1 203/7/1 208/8/1
f 209/5/5 208/6/5 210/7/5 211/8/5
f 203/5/6 206/6/6 212/7/6 213/8/6
f 211/5/2 212/6/2 206/7/2 209/8/2
f 208/5/1 203/6/1 213/7/1 210/8/1
f 214/9/4 215/10/4 216/11/4 217/12/4
f 211/9/5 210/10/5 214/11/5 217/12/5
f 213/9/6 212/10/6 216/11/6 215/12/6
f 217/9/2 216/10/2 212/11/2 211/12/2
f 210/9/1 213/10/1 215/11/1 214/12/1
f 43/1/3 42/2/3 218/3/3 219/4/3
f 218/1/6 42/2/6 45/3/6 220/4/6
f 219/1/1 218/2/1 220/3/1 221/4/1
f 44/5/3 43/6/3 219/7/3 222/8/3
f 44/5/5 222/6/5 223/7/5 46/8/5
f 222/5/1 219/6/1 221/7/1 223/8/1
f 220/1/6 45/2/6 71/3/6 224/4/6
f 221/1/1 220/2/1 224/3/1 225/4/1
f 46/5/5 223/6/5 226/7/5 75/8/5
f 223/5/1 221/6/1 225/7/1 226/8/1
f 224/1/6 71/2/6 161/3/6 227/4/6
f 225/1/1 224/2/1 227/3/1 228/4/1
f 75/5/5 226/6/5 229/7/5 163/8/5
f 226/5/1 225/6/1 228/7/1 229/8/1
f 230/1/4 231/2/4 201/3/4 207/4/4
f 227/1/6 161/2/6 201/3/6 231/4/6
f 228/1/1 227/2/1 231/3/1 230/4/1
f 232/5/4 230/6/4 207/7/4 202/8/4
f 163/5/5 229/6/5 232/7/5 202/8/5
f 229/5/1 228/6/1 230/7/1 232/8/1
